<?xml version="1.0" standalone="no"?><!DOCTYPE svg PUBLIC "-//W3C//DTD SVG 1.1//EN" "http://www.w3.org/Graphics/SVG/1.1/DTD/svg11.dtd"><svg t="1613208532044" class="icon" viewBox="0 0 1024 1024" version="1.1" xmlns="http://www.w3.org/2000/svg" p-id="3696" xmlns:xlink="http://www.w3.org/1999/xlink" width="200" height="200"><defs><style type="text/css"></style></defs><path d="M305.152 416.256c-29.696 0-54.272 24.576-54.272 54.784s24.576 54.272 54.784 54.272 54.784-24.576 54.784-54.272-25.088-54.784-55.296-54.784z" p-id="3697"></path><path d="M512 54.272c-263.68 0-477.696 186.88-477.696 416.768 0 135.68 75.776 263.168 203.264 340.992v126.976c0 11.264 6.144 21.504 15.872 26.624 4.608 2.56 9.216 3.584 14.336 3.584 6.144 0 11.776-1.536 16.384-5.12l59.904-39.424c1.536-1.024 2.56-2.048 3.584-2.56l65.536-43.52c33.792 6.144 67.072 9.216 98.816 9.216 263.68 0 477.696-186.88 477.696-416.768C989.696 241.664 775.68 54.272 512 54.272z m0 773.632c-32.256 0-65.536-3.584-99.328-10.24-7.68-1.536-15.872 0-23.04 4.608l-78.848 52.736c-1.024 0.512-2.56 2.048-3.584 2.56l-9.728 6.656V796.16c0-10.752-5.632-20.992-15.36-26.112-117.76-66.56-187.904-177.664-187.904-297.472C94.208 275.968 281.6 115.712 512 115.712s417.792 159.744 417.792 356.864S742.4 827.904 512 827.904z" p-id="3698"></path><path d="M521.216 416.256c-30.208 0-54.272 24.576-54.272 54.272s24.576 54.784 54.272 54.784c30.208 0 54.784-24.576 54.784-54.784-0.512-29.696-24.576-54.272-54.784-54.272z m212.992 0c-30.208 0-54.784 24.576-54.784 54.272s24.576 54.784 54.784 54.784 54.784-24.576 54.784-54.784c0-29.696-24.576-54.272-54.784-54.272z" p-id="3699"></path></svg>